<svg width="26" height="22" viewBox="0 0 26 22" fill="none" xmlns="http://www.w3.org/2000/svg">
<path d="M5.71587 13.6458L5.7161 13.6455C5.87318 13.4379 6.06149 13.3438 6.32629 13.3438C6.59109 13.3438 6.7794 13.4379 6.93648 13.6455L6.93677 13.6458L10.8429 18.7976C11.1285 19.1913 11.5215 19.4366 12.003 19.4962C12.4714 19.5542 12.9103 19.4334 13.2992 19.1581C13.6997 18.8746 13.951 18.4806 14.0253 17.9973C14.1008 17.5067 13.9669 17.052 13.657 16.6614L11.0532 13.2491L14.5437 8.64586L14.544 8.64545C14.7011 8.43785 14.8894 8.34375 15.1542 8.34375C15.419 8.34375 15.6073 8.43785 15.7644 8.64545L15.7646 8.64562L24.5924 20.3017C24.5924 20.3018 24.5925 20.3018 24.5925 20.3019C24.7048 20.4504 24.7508 20.578 24.7614 20.6884C24.7719 20.7983 24.7511 20.9281 24.6708 21.0873C24.5905 21.2464 24.4978 21.3418 24.401 21.4005C24.3035 21.4595 24.1709 21.5 23.9822 21.5H1.28175C1.09303 21.5 0.960394 21.4595 0.862932 21.4005C0.766149 21.3418 0.67342 21.2464 0.593143 21.0873C0.512809 20.9281 0.492003 20.7983 0.502558 20.6884C0.513173 20.578 0.559125 20.4503 0.67154 20.3017C0.671546 20.3017 0.671553 20.3017 0.671559 20.3017L5.71587 13.6458ZM21.4611 9H21.4599C21.2274 9 21.0571 8.92726 20.9146 8.78549C20.7714 8.64311 20.6995 8.47549 20.6988 8.24951C20.6988 8.24928 20.6988 8.24904 20.6988 8.24881L20.6988 4.25V3.07318L19.8517 3.8901L18.6851 5.01509L18.6851 5.01506L18.6802 5.01988C18.542 5.15691 18.3796 5.22834 18.1649 5.23526C17.9748 5.24138 17.8116 5.18042 17.6507 5.02047L17.6501 5.01988C17.5225 4.89335 17.4514 4.73373 17.4514 4.5C17.4514 4.26626 17.5225 4.10665 17.6502 3.98012L20.9291 0.730117C21.0935 0.567163 21.2634 0.5 21.4599 0.5C21.6564 0.5 21.8263 0.567163 21.9907 0.730116L25.2697 3.98012C25.4341 4.14304 25.5 4.30942 25.5 4.5C25.5 4.69058 25.4341 4.85696 25.2697 5.01988C25.1084 5.17969 24.9346 5.25 24.7237 5.25C24.5129 5.25 24.3383 5.17967 24.1761 5.01944C24.176 5.01939 24.176 5.01934 24.1759 5.0193L23.073 3.92613L22.221 3.08167V4.28125V8.25C22.221 8.47658 22.1492 8.64402 22.0059 8.78613C21.8623 8.92841 21.692 9.00054 21.4611 9Z" fill="#97BC62" stroke="black"/>
</svg>
