<svg xmlns="http://www.w3.org/2000/svg" xmlns:xlink="http://www.w3.org/1999/xlink" version="1.1" x="0px" y="0px" viewBox="0 0 100 100" xml:space="preserve" width="5em" height="6.25em">
  <style>
    path {
      fill: white;
    }
  </style>
  <path d="M50,3C24.084,3,3,24.084,3,50s21.084,47,47,47s47-21.084,47-47S75.916,3,50,3z M50,93C26.29,93,7,73.71,7,50S26.29,7,50,7  s43,19.29,43,43S73.71,93,50,93z M45.246,49.825c4.605,0,8.339-4.595,8.339-10.262c0-5.668-3.733-8.98-8.339-8.98  c-4.604,0-8.338,3.313-8.338,8.98C36.908,45.23,40.642,49.825,45.246,49.825z M45.481,54.231c-0.079,0-0.157,0.004-0.235,0.006  c-0.08-0.002-0.155-0.006-0.236-0.006c-8.31,0-15.143,2.649-15.953,10.096c-0.021,0.193-0.041,1.823-0.057,2.701  c4.475,3.436,9.909,5.272,16.246,5.271c6.268,0,11.793-1.902,16.246-5.271c-0.015-0.878-0.035-2.508-0.056-2.701  C60.624,56.881,53.793,54.231,45.481,54.231z M69.262,27.7h-2.925v7.738H58.6v2.924h7.737v7.738h2.925v-7.738H77v-2.924h-7.738V27.7  z"/>
</svg>
