<svg width="26" height="26" viewBox="0 0 26 26" fill="none" xmlns="http://www.w3.org/2000/svg">
<path d="M11.625 9.04167H14.2083V6.45833H11.625M12.9167 23.25C7.22042 23.25 2.58333 18.6129 2.58333 12.9167C2.58333 7.22042 7.22042 2.58333 12.9167 2.58333C18.6129 2.58333 23.25 7.22042 23.25 12.9167C23.25 18.6129 18.6129 23.25 12.9167 23.25ZM12.9167 0C11.2204 0 9.54079 0.3341 7.97367 0.983223C6.40655 1.63235 4.98263 2.58378 3.7832 3.7832C1.36086 6.20555 0 9.49095 0 12.9167C0 16.3424 1.36086 19.6278 3.7832 22.0501C4.98263 23.2496 6.40655 24.201 7.97367 24.8501C9.54079 25.4992 11.2204 25.8333 12.9167 25.8333C16.3424 25.8333 19.6278 24.4725 22.0501 22.0501C24.4725 19.6278 25.8333 16.3424 25.8333 12.9167C25.8333 11.2204 25.4992 9.54079 24.8501 7.97367C24.201 6.40655 23.2496 4.98263 22.0501 3.7832C20.8507 2.58378 19.4268 1.63235 17.8597 0.983223C16.2925 0.3341 14.6129 0 12.9167 0ZM11.625 19.375H14.2083V11.625H11.625V19.375Z" fill="black"/>
</svg>
